<svg xmlns="http://www.w3.org/2000/svg" viewBox="0 0 23 23"><defs><style>.cls-1{fill:#515151;}</style></defs><g id="Layer_2" data-name="Layer 2"><g id="Layer_1-2" data-name="Layer 1"><path class="cls-1" d="M19.93,23H3.07A3.08,3.08,0,0,1,0,19.93V3.07A3.08,3.08,0,0,1,3.07,0H19.93A3.08,3.08,0,0,1,23,3.07V19.93A3.08,3.08,0,0,1,19.93,23ZM3.07,1A2.07,2.07,0,0,0,1,3.07V19.93A2.07,2.07,0,0,0,3.07,22H19.93A2.07,2.07,0,0,0,22,19.93V3.07A2.07,2.07,0,0,0,19.93,1Z"/><path class="cls-1" d="M11.5,15.45,4.67,8.61a.48.48,0,0,1,0-.7.5.5,0,0,1,.71,0L11.5,14l6.12-6.12a.5.5,0,0,1,.71,0,.48.48,0,0,1,0,.7Z"/></g></g></svg>