<svg xmlns="http://www.w3.org/2000/svg" viewBox="0 0 14.43 14.86"><defs><style>.cls-1{fill:#515151;}</style></defs><g id="Layer_2" data-name="Layer 2"><g id="Layer_1-2" data-name="Layer 1"><path class="cls-1" d="M2.09,14.86a.5.5,0,0,1-.3-.11.5.5,0,0,1-.09-.7L7,7.22.19,1.9a.51.51,0,0,1-.08-.71.5.5,0,0,1,.7-.08L8.43,7.05,2.49,14.67A.53.53,0,0,1,2.09,14.86Z"/><path class="cls-1" d="M8.09,13.86a.5.5,0,0,1-.3-.11.5.5,0,0,1-.09-.7L13,6.22,6.19.9A.5.5,0,0,1,6.81.11l7.62,5.94L8.49,13.67A.53.53,0,0,1,8.09,13.86Z"/></g></g></svg>