<svg xmlns="http://www.w3.org/2000/svg" width="24.999" height="32.221" viewBox="0 0 24.999 32.221">
  <g id="pdf" transform="translate(-6.5)">
    <path id="Path_2715" data-name="Path 2715" d="M31.194,6.77l-.428-.428L25.157.734,24.729.306A1.051,1.051,0,0,0,23.991,0H7.868A1.44,1.44,0,0,0,6.5,1.626V31.11a1.273,1.273,0,0,0,1.021,1.061c.028.007.054.018.083.023a1.354,1.354,0,0,0,.264.027H30.131a1.354,1.354,0,0,0,.264-.027c.029-.006.056-.016.083-.023A1.273,1.273,0,0,0,31.5,31.11V7.765A1.28,1.28,0,0,0,31.194,6.77Zm-1.675-.1H24.833V1.981ZM7.868,31.11a.32.32,0,0,1-.11-.027.254.254,0,0,1-.147-.23V22.777H30.388v8.076a.255.255,0,0,1-.147.23.32.32,0,0,1-.11.027Zm-.257-9.444V1.626c0-.121.018-.514.257-.514H23.754a.855.855,0,0,0-.032.217V7.778h6.449a.851.851,0,0,0,.217-.032c0,.008,0,.012,0,.02v13.9Z" transform="translate(0 0)" fill="#6e6e6e"/>
    <path id="Path_2716" data-name="Path 2716" d="M19.736,44.387a1.941,1.941,0,0,0-.637-.347,2.3,2.3,0,0,0-.718-.116H16.745v5.689h.926V47.559h.687a2.435,2.435,0,0,0,.818-.131,1.844,1.844,0,0,0,.633-.37,1.645,1.645,0,0,0,.409-.591,2.017,2.017,0,0,0,.147-.784,1.553,1.553,0,0,0-.174-.737A1.815,1.815,0,0,0,19.736,44.387Zm-.351,1.88a.931.931,0,0,1-.224.366.846.846,0,0,1-.3.189,1.021,1.021,0,0,1-.336.058h-.849V44.626h.694a1.25,1.25,0,0,1,.571.112.936.936,0,0,1,.336.278.924.924,0,0,1,.158.347,1.581,1.581,0,0,1,.038.32A1.737,1.737,0,0,1,19.384,46.266Z" transform="translate(-4.569 -19.65)" fill="#6e6e6e"/>
    <path id="Path_2717" data-name="Path 2717" d="M28.963,44.757a2.615,2.615,0,0,0-.9-.606,3.26,3.26,0,0,0-1.262-.228H25.084v5.689h2.153a3.071,3.071,0,0,0,.332-.027,2.278,2.278,0,0,0,.494-.124,2.588,2.588,0,0,0,.56-.29,1.963,1.963,0,0,0,.521-.529,2.984,2.984,0,0,0,.382-.834,4.179,4.179,0,0,0,.151-1.2,2.856,2.856,0,0,0-.177-.992A2.5,2.5,0,0,0,28.963,44.757Zm-.675,3.574a1.534,1.534,0,0,1-1.358.6H26.01V44.626h.54a2.842,2.842,0,0,1,1.081.174,1.731,1.731,0,0,1,.66.456,1.5,1.5,0,0,1,.328.629,2.955,2.955,0,0,1,.085.7A3.054,3.054,0,0,1,28.287,48.331Z" transform="translate(-8.297 -19.65)" fill="#6e6e6e"/>
    <path id="Path_2718" data-name="Path 2718" d="M35.6,49.613h.942V47.05h2.377v-.633H36.54V44.626h2.616v-.7H35.6Z" transform="translate(-12.976 -19.65)" fill="#6e6e6e"/>
    <path id="Path_2719" data-name="Path 2719" d="M29.716,16.406a10.929,10.929,0,0,0-1.9.2,18.041,18.041,0,0,1-2.873-4.269c.755-3.178.377-3.628.211-3.84s-.427-.592-.712-.592a2.784,2.784,0,0,0-.574.1,1.084,1.084,0,0,0-.64.686c-.4.933.148,2.524.712,3.751a37.9,37.9,0,0,1-2.139,6.069c-2.14.98-3.276,1.943-3.379,2.861a1.353,1.353,0,0,0,.63,1.266.906.906,0,0,0,.546.184h0c.494,0,.993-.378,1.571-1.19a16.02,16.02,0,0,0,1.345-2.4A27.053,27.053,0,0,1,27.5,17.637a3.755,3.755,0,0,0,2.377,1.29,1.5,1.5,0,0,0,1.253-.672,1.142,1.142,0,0,0,.22-1.22C31.135,16.613,30.6,16.406,29.716,16.406Zm-10.1,5.461c-.264-.2-.249-.339-.243-.391.035-.314.527-.871,1.733-1.549C20.189,21.617,19.7,21.841,19.614,21.867Zm4.63-12.942c.024-.008.59.622.054,1.816A1.354,1.354,0,0,1,24.244,8.926Zm-1.167,9.048a40.25,40.25,0,0,0,1.51-4.271,19.326,19.326,0,0,0,2.158,3.13A28.124,28.124,0,0,0,23.077,17.974Zm7.284-.27a.851.851,0,0,1-.683.249c-.3,0-.413-.179-.873-.533a8.127,8.127,0,0,1,1.022-.061c.5,0,.594.074.663.111A.876.876,0,0,1,30.36,17.7Z" transform="translate(-5.411 -3.442)" fill="#6e6e6e"/>
  </g>
</svg>
