<svg id="Group_4187" data-name="Group 4187" xmlns="http://www.w3.org/2000/svg" width="124" height="124" viewBox="0 0 124 124">
  <path id="Path_2757" data-name="Path 2757" d="M114.133,123.51H9.623A9.753,9.753,0,0,1-.12,113.767V9.257A9.754,9.754,0,0,1,9.623-.49h8.225a1.879,1.879,0,0,1,0,3.758H9.623a6,6,0,0,0-5.986,5.99V113.767a5.994,5.994,0,0,0,5.986,5.986H114.133a6,6,0,0,0,5.99-5.986V9.257a6,6,0,0,0-5.99-5.99H42.656a1.879,1.879,0,1,1,0-3.758h71.477a9.755,9.755,0,0,1,9.747,9.747V113.767A9.754,9.754,0,0,1,114.133,123.51Z" transform="translate(0.12 0.49)" fill="#e10"/>
  <g id="Group_4170" data-name="Group 4170" transform="translate(19.46 20.866)">
    <path id="Path_2758" data-name="Path 2758" d="M87.192,36.756a1.858,1.858,0,0,0-.725-1.476S81.9,31.742,75.984,27.095V19.944a7.479,7.479,0,0,0-7.472-7.472H57.633C54.969,10.3,52.66,8.377,51.117,7.01a7.277,7.277,0,0,0-10.042,0c-1.543,1.367-3.852,3.288-6.516,5.462H23.68a7.479,7.479,0,0,0-7.472,7.472v7.151C10.29,31.738,5.725,35.276,5.725,35.28A1.858,1.858,0,0,0,5,36.756H5V79.72a7.479,7.479,0,0,0,7.472,7.472H79.72a7.479,7.479,0,0,0,7.472-7.472V36.756Zm-4.917,0c-1.457,1.132-3.68,2.858-6.291,4.9V31.843C78.6,33.887,80.814,35.616,82.275,36.756ZM43.552,9.8a3.569,3.569,0,0,1,5.088,0c.841.743,1.9,1.648,3.12,2.664H40.432C41.65,11.452,42.711,10.548,43.552,9.8Zm-19.872,6.4H68.512a3.742,3.742,0,0,1,3.736,3.736V44.583C63.887,51.151,53.4,59.493,48.64,63.7a4.039,4.039,0,0,1-2.6,1.072A3.8,3.8,0,0,1,43.492,63.7c-4.786-4.237-15.22-12.549-23.548-19.1V19.944A3.742,3.742,0,0,1,23.68,16.208ZM16.208,31.843v9.826c-2.611-2.047-4.834-3.777-6.3-4.913C11.374,35.616,13.593,33.89,16.208,31.843ZM79.72,83.456H12.472A3.742,3.742,0,0,1,8.736,79.72V40.57c7.79,6.064,25.816,20.208,32.279,25.931a7.536,7.536,0,0,0,5.021,2.01,7.7,7.7,0,0,0,5.081-2.01c6.717-5.944,25.1-20.309,32.339-25.931V79.72A3.742,3.742,0,0,1,79.72,83.456Z" transform="translate(-5 -5)" fill="#898989"/>
    <circle id="Ellipse_83" data-name="Ellipse 83" cx="1.868" cy="1.868" r="1.868" transform="translate(33.624 26.152)" fill="#898989"/>
    <circle id="Ellipse_84" data-name="Ellipse 84" cx="1.868" cy="1.868" r="1.868" transform="translate(44.832 26.152)" fill="#898989"/>
    <path id="Path_2759" data-name="Path 2759" d="M14.511,21.248a1.878,1.878,0,0,0,2.514-.785c.06-.112,1.521-2.727,5.813-2.727,4.263,0,5.731,2.578,5.813,2.724a1.867,1.867,0,0,0,3.329-1.692c-.1-.194-2.458-4.767-9.142-4.767s-9.045,4.573-9.142,4.767A1.857,1.857,0,0,0,14.511,21.248Z" transform="translate(18.257 19.624)" fill="#898989"/>
  </g>
</svg>
