<svg xmlns="http://www.w3.org/2000/svg" width="32" height="32" viewBox="0 0 32 32">
  <path id="language" d="M16,0A16,16,0,1,0,32,16,16,16,0,0,0,16,0ZM29.838,21.605l-4.55.785a23.877,23.877,0,0,0,.837-5.857h4.8A14.834,14.834,0,0,1,29.838,21.605ZM1.08,16.533h4.8a23.877,23.877,0,0,0,.837,5.857l-4.55-.785A14.834,14.834,0,0,1,1.08,16.533Zm1.082-6.139,4.55-.785a23.877,23.877,0,0,0-.837,5.857H1.08A14.834,14.834,0,0,1,2.162,10.395ZM16.533,8.563a36.69,36.69,0,0,1,5.717.522l1.883.325a22.893,22.893,0,0,1,.925,6.057H16.533Zm5.9-.529a37.8,37.8,0,0,0-5.9-.538V1.1c3.058.294,5.714,3.093,7.219,7.167ZM15.467,7.5a37.8,37.8,0,0,0-5.9.538l-1.32.228c1.505-4.075,4.161-6.876,7.219-7.168ZM9.75,9.085a36.68,36.68,0,0,1,5.717-.522v6.9H6.941A22.893,22.893,0,0,1,7.867,9.41ZM6.941,16.533h8.525v6.9a36.69,36.69,0,0,1-5.717-.522L7.867,22.59A22.893,22.893,0,0,1,6.941,16.533Zm2.626,7.433a37.931,37.931,0,0,0,5.9.54v6.4c-3.058-.294-5.714-3.093-7.219-7.168Zm6.966.54a37.927,37.927,0,0,0,5.9-.54l1.32-.228c-1.505,4.075-4.161,6.876-7.219,7.168Zm5.717-1.592a36.68,36.68,0,0,1-5.717.522v-6.9h8.525a22.893,22.893,0,0,1-.925,6.057Zm3.874-7.448a23.876,23.876,0,0,0-.837-5.857l4.55.785a14.834,14.834,0,0,1,1.082,5.072ZM29.3,9.219l-4.362-.753a14.707,14.707,0,0,0-4.243-6.64A15,15,0,0,1,29.3,9.219ZM11.307,1.827a14.707,14.707,0,0,0-4.243,6.64L2.7,9.219A15,15,0,0,1,11.307,1.827ZM2.7,22.781l4.362.753a14.707,14.707,0,0,0,4.243,6.64A15,15,0,0,1,2.7,22.781Zm17.991,7.393a14.707,14.707,0,0,0,4.243-6.64l4.362-.753A15,15,0,0,1,20.693,30.173Zm0,0" fill="#6e6e6e"/>
</svg>
