<svg xmlns="http://www.w3.org/2000/svg" width="124" height="124" viewBox="0 0 124 124">
  <g id="Group_4160" data-name="Group 4160" transform="translate(0 -0.212)">
    <path id="Path_2745" data-name="Path 2745" d="M113.753,123.321H9.247A9.757,9.757,0,0,1-.5,113.578V9.068A9.76,9.76,0,0,1,9.247-.679h8.225a1.879,1.879,0,0,1,0,3.758H9.247a6,6,0,0,0-5.99,5.99V113.578a6,6,0,0,0,5.99,5.986H113.753a6,6,0,0,0,5.99-5.986V9.068a6,6,0,0,0-5.99-5.99H42.276a1.879,1.879,0,1,1,0-3.758h71.477A9.76,9.76,0,0,1,123.5,9.068V113.578A9.757,9.757,0,0,1,113.753,123.321Z" transform="translate(0.5 0.891)" fill="#e10"/>
    <g id="Group_4156" data-name="Group 4156" transform="translate(32 32.211)">
      <g id="Group_4155" data-name="Group 4155">
        <path id="Path_2746" data-name="Path 2746" d="M54.169,40.981a5.986,5.986,0,0,0-4.341-1.99,6.193,6.193,0,0,0-4.395,1.978l-4.06,4.042c-.335-.179-.667-.347-.99-.514-.46-.23-.9-.448-1.271-.678A44.155,44.155,0,0,1,28.54,34.19a26.024,26.024,0,0,1-3.468-5.47c1.052-.962,2.03-1.966,2.981-2.928.359-.359.717-.732,1.079-1.09a5.891,5.891,0,0,0,0-8.885l-3.51-3.5c-.4-.4-.807-.81-1.193-1.219-.771-.8-1.581-1.619-2.416-2.39a6.087,6.087,0,0,0-4.3-1.885A6.3,6.3,0,0,0,13.341,8.7l-.024.027-4.371,4.4A9.39,9.39,0,0,0,6.16,19.1,22.488,22.488,0,0,0,7.8,28.63a55.219,55.219,0,0,0,9.83,16.381A60.408,60.408,0,0,0,37.766,60.765a31.3,31.3,0,0,0,11.3,3.337c.272.015.553.027.81.027a9.679,9.679,0,0,0,7.414-3.185c.012-.024.039-.039.051-.063a28.619,28.619,0,0,1,2.248-2.324c.553-.526,1.118-1.079,1.671-1.655A6.411,6.411,0,0,0,63.2,52.459a6.162,6.162,0,0,0-1.976-4.4ZM58.77,54.5c-.015,0-.015.012,0,0-.5.541-1.016,1.028-1.57,1.566a34.466,34.466,0,0,0-2.478,2.569,6.194,6.194,0,0,1-4.831,2.041c-.191,0-.4,0-.589-.012a27.843,27.843,0,0,1-10.021-3.006A56.988,56.988,0,0,1,20.319,42.815a52.081,52.081,0,0,1-9.25-15.392,18.333,18.333,0,0,1-1.441-8.037A5.908,5.908,0,0,1,11.4,15.571l4.383-4.377a2.913,2.913,0,0,1,1.952-.911,2.735,2.735,0,0,1,1.874.9l.039.036c.786.735,1.531,1.491,2.314,2.3.4.409.81.822,1.22,1.246l3.507,3.5c1.363,1.359,1.363,2.62,0,3.98-.371.373-.732.744-1.1,1.105-1.079,1.1-2.108,2.13-3.226,3.131-.024.027-.051.039-.063.066a2.616,2.616,0,0,0-.67,2.913l.039.117a28.191,28.191,0,0,0,4.149,6.767l.012.012A47.2,47.2,0,0,0,37.237,46.732a17.691,17.691,0,0,0,1.581.86c.463.23.9.448,1.271.681.054.027.1.063.155.09a2.788,2.788,0,0,0,1.271.32A2.753,2.753,0,0,0,43.47,47.8l4.392-4.392a2.919,2.919,0,0,1,1.94-.962,2.6,2.6,0,0,1,1.851.938l7.1,7.1A2.537,2.537,0,0,1,58.77,54.5Zm0,0" transform="translate(-6.107 -4.042)" fill="#898989"/>
        <path id="Path_2747" data-name="Path 2747" d="M17.743,12.042a13.028,13.028,0,0,1,10.61,10.61A1.356,1.356,0,0,0,29.7,23.785a1.907,1.907,0,0,0,.231-.019,1.369,1.369,0,0,0,1.124-1.581A15.75,15.75,0,0,0,18.219,9.349a1.374,1.374,0,0,0-1.578,1.114,1.35,1.35,0,0,0,1.1,1.578Zm0,0" transform="translate(17.107 2.513)" fill="#898989"/>
        <path id="Path_2748" data-name="Path 2748" d="M39.507,26.8A25.939,25.939,0,0,0,18.37,5.66a1.365,1.365,0,1,0-.445,2.692,23.163,23.163,0,0,1,18.89,18.89,1.358,1.358,0,0,0,1.347,1.133,1.53,1.53,0,0,0,.231-.021A1.34,1.34,0,0,0,39.507,26.8Zm0,0" transform="translate(20.472 -5.639)" fill="#898989"/>
      </g>
    </g>
  </g>
</svg>
