<svg id="Group_4185" data-name="Group 4185" xmlns="http://www.w3.org/2000/svg" width="124" height="124" viewBox="0 0 124 124">
  <path id="Path_2755" data-name="Path 2755" d="M113.508,123.5H9a9.757,9.757,0,0,1-9.743-9.747V9.247A9.757,9.757,0,0,1,9-.5h8.229a1.879,1.879,0,1,1,0,3.758H9a6,6,0,0,0-5.986,5.99V113.753A6,6,0,0,0,9,119.742H113.508a6,6,0,0,0,5.99-5.99V9.247a6,6,0,0,0-5.99-5.99H42.031a1.879,1.879,0,1,1,0-3.758h71.477a9.76,9.76,0,0,1,9.747,9.747V113.753A9.76,9.76,0,0,1,113.508,123.5Z" transform="translate(0.745 0.5)" fill="#e10"/>
  <g id="Group_4168" data-name="Group 4168" transform="translate(26.017 23.742)">
    <path id="Path_2756" data-name="Path 2756" d="M68.4,34.986V32.042A26.869,26.869,0,0,0,61.4,13.6,24.19,24.19,0,0,0,43.458,5.889H41.029A24.19,24.19,0,0,0,23.09,13.6a26.886,26.886,0,0,0-7.008,18.438v2.944A10.553,10.553,0,0,0,6.245,45.5v4.6a10.544,10.544,0,0,0,10.53,10.526H22.7a1.932,1.932,0,0,0,1.93-1.926V36.882a1.933,1.933,0,0,0-1.93-1.93H19.942v-2.91c0-12.713,9.066-22.294,21.072-22.294h2.429c12.021,0,21.072,9.58,21.072,22.294v2.91H61.749a1.932,1.932,0,0,0-1.926,1.93V58.676a1.932,1.932,0,0,0,1.926,1.93h2.7C63.663,70.667,56.735,73,53.519,73.531a6.785,6.785,0,0,0-6.444-4.681H42.251a6.777,6.777,0,0,0,0,13.553h4.839a6.786,6.786,0,0,0,6.527-4.983,18.271,18.271,0,0,0,6.542-2.236c3.489-2.039,7.617-6.205,8.165-14.594a10.538,10.538,0,0,0,9.883-10.511v-4.6a10.5,10.5,0,0,0-9.8-10.5ZM20.809,56.75h-4a6.676,6.676,0,0,1-6.671-6.671v-4.6a6.674,6.674,0,0,1,6.671-6.671h4ZM47.091,78.545H42.251a2.91,2.91,0,1,1,0-5.819h4.839a2.91,2.91,0,1,1,0,5.819ZM74.368,50.079A6.676,6.676,0,0,1,67.7,56.75h-4V38.811h4a6.674,6.674,0,0,1,6.671,6.671Zm0,0" transform="translate(-6.245 -5.889)" fill="#898989"/>
  </g>
</svg>
