<svg xmlns="http://www.w3.org/2000/svg" xmlns:xlink="http://www.w3.org/1999/xlink" width="124" height="124" viewBox="0 0 124 124">
  <defs>
    <clipPath id="clip-path">
      <rect id="Rectangle_1641" data-name="Rectangle 1641" width="68.754" height="86.368" fill="none"/>
    </clipPath>
  </defs>
  <g id="Group_4183" data-name="Group 4183" transform="translate(0.19 0.471)">
    <path id="Path_2749" data-name="Path 2749" d="M114.063,123.529H9.553A9.757,9.757,0,0,1-.19,113.782V9.276A9.754,9.754,0,0,1,9.553-.471h8.229a1.879,1.879,0,0,1,0,3.758H9.553a5.993,5.993,0,0,0-5.986,5.99V113.782a5.993,5.993,0,0,0,5.986,5.99H114.063a6,6,0,0,0,5.99-5.99V9.276a6,6,0,0,0-5.99-5.99H42.582a1.879,1.879,0,1,1,0-3.758h71.48a9.757,9.757,0,0,1,9.747,9.747V113.782A9.76,9.76,0,0,1,114.063,123.529Z" transform="translate(0 0)" fill="#e10"/>
    <g id="Group_4167" data-name="Group 4167" transform="translate(26.313 18.232)">
      <g id="Group_4166" data-name="Group 4166">
        <g id="Group_4165" data-name="Group 4165" clip-path="url(#clip-path)">
          <path id="Path_2750" data-name="Path 2750" d="M16.02,90.7H67.03c4.862,0,8.873-3.6,8.873-8.032V24.06C75.9,19.629,71.891,16,67.03,16H58.987V11.471a1.675,1.675,0,0,0-.528-1.229,1.861,1.861,0,0,0-1.293-.511H50.145a9.54,9.54,0,0,0-8.714-5.4H41.4a9.325,9.325,0,0,0-8.656,5.4H25.782a1.853,1.853,0,0,0-1.907,1.74V16H16.02c-4.862,0-8.873,3.631-8.873,8.062V82.667c0,4.431,4.011,8.032,8.873,8.032ZM27.553,13.214h6.5a1.824,1.824,0,0,0,1.778-1.31,5.708,5.708,0,0,1,5.576-4.09h.016A5.575,5.575,0,0,1,47,11.837a1.824,1.824,0,0,0,1.8,1.377h6.516V21.92H27.553ZM10.824,24.06c0-2.513,2.365-4.579,5.2-4.579h7.856v4.127a1.9,1.9,0,0,0,1.907,1.8H57.166a1.816,1.816,0,0,0,1.821-1.8V19.481H67.03c2.831,0,5.2,2.065,5.2,4.579V82.667c0,2.51-2.365,4.553-5.2,4.553H16.02c-2.831,0-5.2-2.043-5.2-4.553Zm0,0" transform="translate(-7.148 -4.333)" fill="#898989"/>
        </g>
      </g>
      <path id="Path_2751" data-name="Path 2751" d="M13.873,24.731H40.985a1.825,1.825,0,1,0,0-3.65H13.873a1.825,1.825,0,1,0,0,3.65Zm0,0" transform="translate(6.948 40.783)" fill="#898989"/>
      <path id="Path_2752" data-name="Path 2752" d="M12.456,26.616H50.6a1.827,1.827,0,1,0,0-3.654H12.456a1.827,1.827,0,1,0,0,3.654Zm0,0" transform="translate(2.851 45.85)" fill="#898989"/>
      <path id="Path_2753" data-name="Path 2753" d="M14.1,31.82h7.172v7.126a1.833,1.833,0,0,0,1.837,1.825H30.46A1.833,1.833,0,0,0,32.3,38.946V31.82h7.172a1.833,1.833,0,0,0,1.837-1.825V22.687a1.834,1.834,0,0,0-1.837-1.829H32.3V13.736a1.834,1.834,0,0,0-1.837-1.829H23.106a1.834,1.834,0,0,0-1.837,1.829v7.122H14.1a1.834,1.834,0,0,0-1.837,1.829v7.308A1.833,1.833,0,0,0,14.1,31.82Zm1.841-7.308h7.168a1.831,1.831,0,0,0,1.841-1.825V15.561H28.62v7.126a1.831,1.831,0,0,0,1.841,1.825h7.168v3.654H30.46a1.835,1.835,0,0,0-1.841,1.829v7.122H24.946V29.995a1.835,1.835,0,0,0-1.841-1.829H15.937Zm0,0" transform="translate(7.594 15.484)" fill="#898989"/>
    </g>
  </g>
</svg>
